<!DOCTYPE svg PUBLIC "-//W3C//DTD SVG 1.1//EN" "http://www.w3.org/Graphics/SVG/1.1/DTD/svg11.dtd">
<!-- Uploaded to: SVG Repo, www.svgrepo.com, Transformed by: SVG Repo Mixer Tools -->
<svg height="800px" width="800px" version="1.1" id="_x32_" xmlns="http://www.w3.org/2000/svg" xmlns:xlink="http://www.w3.org/1999/xlink" viewBox="0 0 512 512" xml:space="preserve" fill="#f0a868" transform="matrix(-1, 0, 0, 1, 0, 0)">
<g id="SVGRepo_bgCarrier" stroke-width="0"/>
<g id="SVGRepo_tracerCarrier" stroke-linecap="round" stroke-linejoin="round"/>
<g id="SVGRepo_iconCarrier"> <style type="text/css"> .st0{fill:#f0a868;} </style> <g> <path class="st0" d="M116.683,354.34c-26.836,0-48.607,21.764-48.607,48.6c0,26.85,21.771,48.614,48.607,48.614 c26.844,0,48.608-21.764,48.608-48.614C165.29,376.104,143.526,354.34,116.683,354.34z M116.683,424.826 c-12.08,0-21.872-9.799-21.872-21.886c0-12.073,9.792-21.865,21.872-21.865c12.08,0,21.872,9.792,21.872,21.865 C138.554,415.027,128.762,424.826,116.683,424.826z"/> <path class="st0" d="M403.8,354.34c-26.836,0-48.6,21.764-48.6,48.6c0,26.85,21.764,48.614,48.6,48.614 c26.843,0,48.606-21.764,48.606-48.614C452.406,376.104,430.643,354.34,403.8,354.34z M403.8,424.826 c-12.073,0-21.865-9.799-21.865-21.886c0-12.073,9.792-21.865,21.865-21.865c12.079,0,21.871,9.792,21.871,21.865 C425.671,415.027,415.879,424.826,403.8,424.826z"/> <path class="st0" d="M200.127,128.622H90.502c-3.561,0-6.957,1.582-9.23,4.331l-78.48,94.163C0.986,229.268,0,231.994,0,234.815 v82.595v43.189c0,6.648,5.389,12.029,12.03,12.029h36.844c11.626-25.9,37.621-44.024,67.81-44.024 c30.196,0,56.183,18.124,67.81,44.024h27.671V140.652C212.163,134.003,206.767,128.622,200.127,128.622z M43.931,236.052 c0-2.849,0.978-5.612,2.777-7.82l50.103-61.694c2.36-2.907,5.9-4.59,9.633-4.59h49.083c6.848,0,12.404,5.554,12.404,12.411v70.011 c0,6.849-5.555,12.404-12.404,12.404H56.334c-6.85,0-12.404-5.554-12.404-12.404V236.052z"/> <path class="st0" d="M243.532,338.792c-3.741,0-6.763,3.03-6.763,6.77v20.303c0,3.735,3.022,6.763,6.763,6.763h92.466 c6.382-14.209,17.072-26.023,30.419-33.836H243.532z"/> <path class="st0" d="M504.381,338.792h-63.19c13.353,7.814,24.044,19.627,30.419,33.836h32.772c3.741,0,6.77-3.028,6.77-6.763 v-20.303C511.151,341.822,508.122,338.792,504.381,338.792z"/> <path class="st0" d="M497.568,60.446H252.043c-7.964,0-14.425,6.46-14.425,14.432v226.703c0,7.972,6.461,14.432,14.425,14.432 h245.525c7.971,0,14.432-6.46,14.432-14.432V74.878C512,66.906,505.539,60.446,497.568,60.446z M458.27,134.09H291.355 c-3.741,0-6.771-3.036-6.771-6.763v-13.533c0-3.741,3.03-6.77,6.771-6.77H458.27c3.735,0,6.763,3.029,6.763,6.77v13.533 C465.033,131.054,462.005,134.09,458.27,134.09z M291.355,174.697H458.27c3.735,0,6.763,3.021,6.763,6.763V195 c0,3.727-3.028,6.763-6.763,6.763H291.355c-3.741,0-6.771-3.036-6.771-6.763v-13.54 C284.584,177.718,287.614,174.697,291.355,174.697z M291.355,242.369H458.27c3.735,0,6.763,3.022,6.763,6.763v13.533 c0,3.727-3.028,6.77-6.763,6.77H291.355c-3.741,0-6.771-3.044-6.771-6.77v-13.533C284.584,245.391,287.614,242.369,291.355,242.369 z"/> </g> </g>
</svg>